<svg preserveAspectRatio="none" overflow="visible" style="display: block;" width="18.0729" height="15.7294" viewBox="0 0 18.0729 15.7294" fill="none" xmlns="http://www.w3.org/2000/svg">
<g id="Group">
<g id="Group_2">
<path id="Path" d="M14.7013 12.6946C15.2171 13.2104 15.2171 14.0463 14.7013 14.5613C14.1854 15.0771 13.3496 15.0771 12.8346 14.5613C12.3188 14.0454 12.3188 13.2096 12.8346 12.6946C13.3504 12.1788 14.1863 12.1788 14.7013 12.6946" stroke="#6D6C79" stroke-width="1.5625" stroke-linecap="round" stroke-linejoin="round"/>
<path id="Path_2" d="M5.53458 12.6946C6.05042 13.2104 6.05042 14.0463 5.53458 14.5613C5.01875 15.0771 4.18292 15.0771 3.66792 14.5613C3.15292 14.0454 3.15208 13.2096 3.66792 12.6946C4.18375 12.1796 5.01875 12.1788 5.53458 12.6946" stroke="#6D6C79" stroke-width="1.5625" stroke-linecap="round" stroke-linejoin="round"/>
<path id="Path_3" d="M7.44792 0.78125H10.7813C11.2413 0.78125 11.6146 1.15458 11.6146 1.61458V9.94792H0.78125" stroke="#6D6C79" stroke-width="1.5625" stroke-linecap="round" stroke-linejoin="round"/>
<path id="Path_4" d="M3.28125 13.6279H1.61458C1.15458 13.6279 0.78125 13.2546 0.78125 12.7946V8.28125" stroke="#6D6C79" stroke-width="1.25" stroke-linecap="round" stroke-linejoin="round"/>
<path id="Path_5" d="M11.6146 3.28125H15.2171C15.5579 3.28125 15.8646 3.48875 15.9904 3.80542L17.3288 7.15042C17.4071 7.34708 17.4479 7.55708 17.4479 7.76875V12.7254C17.4479 13.1854 17.0746 13.5588 16.6146 13.5588H15.0888" stroke="#6D6C79" stroke-width="1.25" stroke-linecap="round" stroke-linejoin="round"/>
<path id="Path_6" d="M12.4479 13.6313H5.92292" stroke="#6D6C79" stroke-width="1.25" stroke-linecap="round" stroke-linejoin="round"/>
<path id="Path_7" d="M17.4479 9.11458H14.1146V5.78125H16.7813" stroke="#6D6C79" stroke-width="1.25" stroke-linecap="round" stroke-linejoin="round"/>
<path id="Path_8" d="M0.78125 0.78125H4.94792" stroke="#6D6C79" stroke-width="1.25" stroke-linecap="round" stroke-linejoin="round"/>
<path id="Path_9" d="M0.78125 3.28125H3.28125" stroke="#6D6C79" stroke-width="1.25" stroke-linecap="round" stroke-linejoin="round"/>
<path id="Path_10" d="M1.61458 5.78125H0.78125" stroke="#6D6C79" stroke-width="1.25" stroke-linecap="round" stroke-linejoin="round"/>
</g>
</g>
</svg>
