<svg width="20.0083" height="20.0083" viewBox="0 0 20.0083 20.0083" fill="none" xmlns="http://www.w3.org/2000/svg"><path d="M7.08629 8.33681C7.08629 9.94831 8.39267 11.2547 10.0042 11.2547V11.2547C11.6157 11.2547 12.922 9.94831 12.922 8.33681" stroke="white" stroke-width="1.25" stroke-linecap="round" stroke-linejoin="round"/><path d="M7.08629 5.83576V5.41892C7.08629 3.80742 8.39267 2.50104 10.0042 2.50104V2.50104C11.6157 2.50104 12.922 3.80742 12.922 5.41892V5.83576" stroke="white" stroke-width="1.25" stroke-linecap="round" stroke-linejoin="round"/><path fill-rule="evenodd" clip-rule="evenodd" d="M5.38895 5.83576C4.5085 5.83576 3.77981 6.52038 3.72489 7.39912L3.34223 13.5217C3.27763 14.5553 3.64316 15.5696 4.35223 16.3244C5.0613 17.0792 6.05083 17.5073 7.08644 17.5073H12.9219C13.9575 17.5073 14.9471 17.0792 15.6561 16.3244C16.3652 15.5696 16.7308 14.5553 16.6662 13.5217L16.2835 7.39912C16.2286 6.52037 15.4999 5.83576 14.6194 5.83576H5.38895Z" stroke="white" stroke-width="1.25" stroke-linecap="round" stroke-linejoin="round"/></svg>